<?xml version="1.0" encoding="utf-8"?>
<!-- Generator: Adobe Illustrator 28.3.0, SVG Export Plug-In . SVG Version: 6.00 Build 0)  -->
<svg version="1.1" id="Layer_1" xmlns="http://www.w3.org/2000/svg" xmlns:xlink="http://www.w3.org/1999/xlink" x="0px" y="0px"
	 viewBox="0 0 723.3 213.4" style="enable-background:new 0 0 723.3 213.4;" xml:space="preserve">
<style type="text/css">
	.st0{fill:#6156E5;}
	.st1{fill:#404947;}
</style>
<g>
	<path class="st0" d="M17.8,108.8c0-13.3-0.1-26.7,0-40c0.1-17.8,10.8-32.4,27-37.3c3.2-1,6.4-1.5,9.8-1.5c17.7,0,35.3-0.2,53,0.1
		c13.9,0.3,24.2,7.2,31.4,19c1.2,1.9,1,2.6-1.4,2.6c-18,0-32,9.1-44.8,20.4C77.5,85.8,65.3,102.3,53.4,119
		c-7.1,9.9-14.2,19.7-23.4,27.9c-2.9,2.6-5.9,4.9-9.6,6.2c-1.9,0.7-2.8,0.4-2.7-1.8c0.1-3.2,0-6.3,0-9.5
		C17.8,130.7,17.8,119.8,17.8,108.8z"/>
	<path class="st0" d="M28.2,155.8c9.7-5.1,19.6-9,29-13.8c12.9-6.6,25.6-13.5,37.7-21.4c12.8-8.4,20.8-20.3,25.1-34.9
		c2.7-9.1,7.9-16.4,15.4-22.2c2.1-1.6,4.6-4.1,6.9-3.1c2.4,1,1.2,4.5,1.2,6.8c0.1,17.1-0.1,34.3,0.1,51.4
		c0.3,19-15.9,37.2-37.2,37.2c-25.6,0-51.3,0-76.9,0C29.2,156,28.7,155.9,28.2,155.8z"/>
	<path class="st1" d="M551.2,93.1c0-10.8,0-21.6,0-32.5c0-4,0-4,4.1-4c7.7,0,15.3-0.1,23,0c18.3,0.3,29.3,10.1,32.3,28.2
		c1.6,9.5,0.8,18.6-3.1,27.3c-4.8,10.8-13.6,16.8-25.3,17.6c-9.4,0.7-19,0.1-28.5,0.3c-3,0.1-2.6-1.7-2.6-3.6
		C551.2,115.4,551.2,104.2,551.2,93.1z M561.2,92.5c0,7.5,0.1,15,0,22.5c0,2.6,0.8,3.5,3.4,3.5c4.8-0.2,9.7,0.1,14.5-0.1
		c9.6-0.4,16.6-6,19.4-15.2c1.7-5.5,1.9-11.2,0.9-16.8c-2.2-12.7-9.9-20-22.3-19.7c-4.2,0.1-8.3,0.1-12.5,0
		c-2.6-0.1-3.4,0.9-3.4,3.4C561.3,77.5,561.2,85,561.2,92.5z"/>
	<path class="st1" d="M321.3,93.2c0-11,0.1-22-0.1-33c0-2.9,0.8-3.7,3.7-3.6c8.3,0.2,16.7,0.1,25,0.1c1.2,0,2.3,0.2,3.5,0.3
		c17.3,1.8,26.3,18.1,18.6,33.7c-3.1,6.2-8.3,9.9-15,11.3c-2.1,0.4-2.1,1.1-0.8,2.5c5.1,5.4,9.3,11.8,16.6,14.8
		c1.3,0.5,1.7,1.4,1.7,2.7c-0.1,2.2-0.1,4.3,0,6.5c0.2,2.5-1.2,2.8-3.1,2.3c-4.6-1.2-8.5-3.8-11.9-7.1c-5.4-5.2-9.9-11.2-14.6-17.1
		c-2.3-2.9-5-3.9-8.7-3.7c-2.6,0.2-3.5,0.8-3.4,3.4c0.1,6.3,0,12.7,0.1,19c0,5.1,0.4,4.7-4.4,4.7c-7.1,0-7.1,0.1-7.1-6.9
		C321.4,113.2,321.3,103.2,321.3,93.2z M332.7,79.5C332.8,79.5,332.8,79.5,332.7,79.5c0,3.3,0,6.7,0,10c0,1.5,0.2,2.6,2.1,2.6
		c6-0.1,12,0.3,18-0.2c6.3-0.5,9.9-5.8,9.8-12.9c-0.1-7.1-4-11.8-10.5-12.2c-5.5-0.3-11-0.1-16.5-0.2c-2.1,0-3,0.7-2.9,2.9
		C332.8,72.8,332.7,76.2,332.7,79.5z"/>
	<path class="st1" d="M189.5,93.2c0-11,0.1-22-0.1-33c0-2.8,0.7-3.7,3.6-3.7c9,0.2,18,0,27,0.1c13.6,0.2,21.9,8.5,22.6,22.1
		c0.2,4.7,0.3,9.3-1.1,13.8c-2.9,9.2-10.3,15-20,15.3c-5.5,0.2-11,0-16.5,0.1c-4.6,0-4.7,0-4.7,4.5c0,4.8-0.1,9.7,0,14.5
		c0.1,2.4-0.8,3.1-3.2,3.1c-7.7,0.2-7.7,0.3-7.7-7.5C189.5,112.8,189.5,103,189.5,93.2z M200.3,82.5c0,4.2,0.1,8.3,0,12.5
		c-0.1,2.4,0.7,3.3,3.1,3.2c4.1-0.2,8.3-0.3,12.5,0c8,0.6,14-3.5,15.6-13.9c1.5-9.7-5.1-17.4-14.8-17.5c-4.5-0.1-9,0.1-13.5-0.1
		c-2.2-0.1-2.9,0.7-2.9,2.9C200.3,73.8,200.3,78.1,200.3,82.5z"/>
	<path class="st1" d="M416.7,56.6c7.2,0,7.2,0,9.5,6.8c7.1,20.9,14.1,41.8,21.2,62.8c1.3,3.8,1.3,3.8-2.4,3.9
		c-7.4,0.2-7.4,0.2-9.8-7c-2.6-8.2-2.6-8.2-11.5-8.2c-6.7,0-13.3,0.1-20-0.1c-2.4-0.1-3.6,0.7-4.3,3c-0.9,3.2-2.1,6.3-3.1,9.4
		c-0.6,2-1.7,2.8-3.9,2.8c-8.4,0.2-8.4,0.3-5.7-7.3c7-20.1,13.9-40.2,20.9-60.2c2.1-5.9,2-5.9,8.1-5.9
		C416,56.6,416.3,56.6,416.7,56.6z M417,68.2c-2,3.4-2.8,6.8-3.9,10c-3,8.4-5.8,17-9,25.3c-1,2.7-0.3,3.2,2.2,3.1
		c6.8-0.1,13.7-0.1,20.5,0c2,0,3.2-0.2,2.3-2.8C425,92.1,421.1,80.3,417,68.2z"/>
	<path class="st1" d="M650.8,56.6c0.7,0,1.3,0,2,0c5.4,0,4.6-0.6,6.2,4.3c7.3,21.7,14.6,43.3,22,65c0.3,0.8,0.5,1.6,0.8,2.4
		c0.3,0.9,0.2,1.6-0.9,1.7c-0.3,0-0.7,0-1,0.1c-8.4,0.7-8.3,0.7-11.1-7.2c-0.9-2.6-0.8-6.2-3.1-7.5c-2-1.2-5.2-0.4-7.8-0.4
		c-6.8,0-13.6,0.1-20.5,0c-2.3,0-3.8,0.3-4.2,2.9c-0.4,2.1-1.3,4.1-2.1,6.1c-0.8,2-0.5,4.9-2.5,5.7c-2.7,1.2-5.9,0.6-8.9,0.3
		c-2.3-0.2-1.1-2-0.8-3c2.5-7.4,5.1-14.7,7.6-22.1c5-14.2,9.9-28.5,14.9-42.7c2.2-6.3,0.5-5.5,7.8-5.6
		C649.8,56.6,650.3,56.6,650.8,56.6z M650.3,106.6c3.7,0,7.3,0,11,0c1.9,0,2.2-0.6,1.6-2.4c-3.9-11.3-7.6-22.6-11.4-33.9
		c-0.1-0.4-0.4-1.1-0.7-1.1c-0.9-0.2-1,0.6-1.2,1.2c-1.3,3.6-2.6,7.2-3.8,10.8c-2.6,7.3-5.2,14.7-7.8,22c-1.1,3.2-0.9,3.4,2.4,3.5
		C643.6,106.7,646.9,106.6,650.3,106.6z"/>
	<path class="st1" d="M277.8,56.6c6.8,0,6.8,0,9.1,6.6c7.2,21.1,14.3,42.1,21.4,63.2c1.2,3.5,1.2,3.5-2.3,3.6
		c-7.5,0.2-7.4,0.2-10-6.8c-1-2.8-0.8-6.6-3.4-8c-2.3-1.2-5.5-0.4-8.3-0.4c-6.3,0-12.7,0.2-19-0.1c-3.3-0.2-4.7,1.1-5.5,4.1
		c-0.7,2.9-1.9,5.7-2.8,8.5c-0.5,1.7-1.3,2.7-3.4,2.7c-10.4-0.3-9,1.3-5.8-8c6.7-19.6,13.6-39.2,20.5-58.8
		C270.5,56.6,270.5,56.6,277.8,56.6z M277.5,106.6c3.3,0,6.7-0.1,10,0c2.6,0.1,3.1-0.6,2.2-3.1c-3.9-11.1-7.5-22.3-11.2-33.5
		c-0.2-0.5-0.4-1.3-0.5-1.3c-0.7,0.1-1.1,0.6-1.3,1.3c-4,11.3-7.9,22.6-11.9,33.8c-0.8,2.3,0,3,2.3,2.9
		C270.5,106.5,274,106.6,277.5,106.6z"/>
	<path class="st1" d="M475.5,130c-7.2,0-7.2,0-9.5-6.6c-7.1-21-14.2-42.1-21.3-63.1c-1.2-3.6-1.2-3.7,2.4-3.6
		c10.6,0.3,7.9-2.3,11.3,8.2c5.6,17.4,10.9,34.8,16.3,52.2c0.1,0.5,0.3,1,0.5,1.4c0.2,0.4,0.5,1.1,0.8,1.2c0.9,0.1,0.8-0.8,0.9-1.3
		c2.3-6.9,4.5-13.9,6.8-20.8c4-12.5,8.1-24.9,12-37.4c0.8-2.5,1.8-3.7,4.8-3.7c8.9,0.1,8.8-0.1,5.9,8.5
		c-6.8,19.6-13.6,39.2-20.4,58.8c-2.2,6.3-2.1,6.3-8.8,6.3C476.5,130,476,130,475.5,130z"/>
	<path class="st1" d="M531.5,93.5c0,11-0.1,21.9,0.1,32.9c0,2.7-0.6,3.8-3.5,3.7c-9.1-0.3-7.3,1.1-7.4-7.3c-0.1-20.6,0-41.2,0-61.8
		c0-4.3,0-4.3,4.3-4.4c6.6,0,6.6,0,6.6,6.5C531.5,73.3,531.5,83.4,531.5,93.5z"/>
	<path class="st1" d="M466,170.9c0-5,0-10,0-15c0-1.5-0.2-3,2.2-3c2.2,0,2.4,1.2,2.3,2.8c0,1.3,0,2.7,0,4c0,1.8-0.6,4.2,0.4,5.3
		c0.9,1.1,2.6-1.2,4.1-1.6c5.7-1.6,10.3,1.1,10.8,6.9c0.4,5.3,0.2,10.6,0.3,16c0,1.5-0.3,2.5-2.2,2.5c-2.2,0.1-2.3-1.2-2.3-2.9
		c0-4.5,0-9,0-13.5c0-2.5-0.5-4.7-3.3-5.5c-2.6-0.7-5.4,0.4-7,2.6c-0.9,1.2-0.7,2.5-0.7,3.8c0,4.2,0,8.3,0,12.5c0,1.6,0,2.9-2.3,2.9
		c-2.3,0-2.2-1.4-2.2-3C465.9,180.9,465.9,175.9,466,170.9C465.9,170.9,465.9,170.9,466,170.9z"/>
	<path class="st1" d="M570.4,170.4c0-5,0-10,0-15c0-1.5,0.2-2.6,2.1-2.6c1.8,0,2.3,0.8,2.3,2.4c-0.1,2.2,0,4.3,0,6.5
		c0,2.3,0.1,4.3,3.2,2.2c0.4-0.3,0.9-0.4,1.4-0.5c5.7-1.7,10.3,0.9,10.9,6.8c0.6,5.4,0.2,11,0.3,16.5c0,1.5-0.6,2-2.1,2.1
		c-1.6,0-2.5-0.4-2.5-2.2c0-4.5,0.1-9,0-13.5c-0.1-4.8-1.4-6.3-5.1-6.3c-3.7,0.1-5.9,2.3-6,6.4c-0.1,4.2,0,8.3,0,12.5
		c0,1.4,0.4,3-2.1,3.1c-2.3,0-2.3-1.3-2.3-2.9C570.4,180.8,570.4,175.6,570.4,170.4z"/>
	<path class="st1" d="M536.8,177.5c0,2.7-0.1,5.3,0,8c0.2,3.2-1.2,4.6-3.5,2.8c-1.6-1.3-2.4-0.9-3.7-0.2c-1,0.6-2.2,0.8-3.3,0.9
		c-5.4,0.3-9.1-2.1-9.7-6.4c-0.6-4.2,2.5-7.8,7.6-8.8c1.8-0.3,3.6-0.3,5.5-0.5c2.4-0.3,3.1-1.4,2.1-3.7c-1.4-3.4-6.4-4.2-9.2-1.2
		c-1.5,1.5-3.1,3.7-4.7,1.7c-1.7-2.1,0.9-3.9,2.6-5c3.4-2.3,7.1-2.7,11-1.3c3.1,1.1,4.9,3.4,5,6.7c0.1,2.3,0,4.7,0,7
		C536.6,177.5,536.7,177.5,536.8,177.5z M528.8,176.6c-2.6,0-4.4,0.5-5.7,1.2c-1.5,0.9-1.9,2.2-1.8,3.8c0.1,1.7,1,2.8,2.5,3.4
		c2.7,1.1,6.9-0.4,8.2-2.9C533.6,179,532.2,176.5,528.8,176.6z"/>
	<path class="st1" d="M631.5,163c4.8,0,9.3,2.8,9.1,8.8c-0.2,5.1-0.7,10.2,0.6,15.4c0.6,2.2-2,1.9-2.6,1.5c-2.4-2-4.5-0.9-6.8,0.1
		c-1.2,0.5-2.6,0.3-3.9,0.2c-3.7-0.2-6.4-2.6-7.1-5.9c-0.7-3.5,1.2-6.9,4.7-8.5c2.6-1.2,5.5-1.2,8.3-1.3c2.7-0.1,3.1-0.9,2.2-3.4
		c-1.3-3.5-6.2-4.4-9.1-1.7c-0.7,0.6-1.1,1.8-1.8,2.2c-1,0.6-2.4,0.7-3.3-0.1c-0.9-0.8-0.2-1.8,0.4-2.7
		C624.3,164.2,627.6,163.1,631.5,163z M633.9,176.4c-1.4,0.1-2.6,0.2-3.7,0.4c-3.9,0.7-5.5,2.6-4.7,5.5c0.6,2.6,3.9,3.9,7,2.6
		c2.4-1,4.2-2.5,4.1-5.6C636.4,177.2,635.9,176.1,633.9,176.4z"/>
	<path class="st1" d="M504.2,177.6c-2,0-4,0-6,0c-2.5,0-2.7,1.3-1.9,3.3c1.6,4.2,6.2,6,10.3,3.9c0.7-0.4,1.4-1,2-1.5
		c1.2-1.1,2.2-0.5,3,0.4c0.9,1.1-0.1,1.7-0.7,2.5c-3,3.8-13.4,4.4-17.3-1.4c-3.3-4.9-3-13.8,1-18.2c3.2-3.5,8.6-4.6,12.8-2.4
		c3.7,1.9,6,7.1,5.3,11.6c-0.2,1.2-0.6,1.8-1.9,1.8C508.5,177.5,506.3,177.5,504.2,177.6C504.2,177.5,504.2,177.5,504.2,177.6z
		 M501.9,173.8c0.7,0,1.3,0.1,2,0c1.4-0.2,3.6,0.8,4-0.7c0.5-2-0.6-4.2-2.5-5.5c-2.1-1.5-6-1-7.7,1.1c-1,1.3-2.3,2.9-1.7,4.4
		c0.6,1.6,2.6,0.6,4,0.8C500.6,173.9,501.3,173.8,501.9,173.8z"/>
	<path class="st1" d="M675,177.5c-2,0-4-0.1-6,0c-2.6,0.1-3.1,1-2,3.5c1.9,4.2,6.4,5.8,10.4,3.7c0.6-0.3,1.2-0.7,1.6-1.2
		c1-1.2,2-1.1,2.9-0.1c1.1,1.2,0.3,2-0.5,2.9c-3.6,3.9-14.8,4.3-18-3c-2.2-5-2.1-10,0.4-14.8c2.4-4.7,7.9-6.6,12.8-4.8
		c4.4,1.5,7.6,7.4,6.8,12.1c-0.2,1.2-0.8,1.7-2,1.7C679.3,177.5,677.1,177.5,675,177.5C675,177.5,675,177.5,675,177.5z M672.1,173.8
		c0.8,0,1.7,0.1,2.5,0c1.4-0.2,3.4,0.9,3.9-0.9c0.6-2.2-0.6-4.3-2.6-5.4c-2.2-1.2-4.5-1.1-6.5,0.4c-1.7,1.2-3,3.2-2.6,5
		c0.5,2,2.8,0.5,4.3,0.9C671.4,173.9,671.7,173.8,672.1,173.8z"/>
	<path class="st1" d="M595.5,176.7c0-9.2,5.3-14.7,13-13.5c3.5,0.6,6.2,2.3,7.6,5.7c0.4,1,1.2,2.5-0.2,3.1c-1.2,0.5-2.9,1.1-3.6-1.2
		c-0.5-1.7-1.6-2.9-3.2-3.6c-3.7-1.6-7.5,0.4-8.5,4.4c-0.7,2.8-0.8,5.6-0.2,8.4c0.6,2.9,2.1,4.9,5.1,5.5c2.7,0.5,4.9-0.4,6.4-2.7
		c0.4-0.7,0.5-1.7,1.5-1.9c1-0.2,2.1-0.4,2.9,0.3c0.7,0.6,0.3,1.5-0.1,2.3c-1.9,3.8-5,5.5-9.2,5.6c-4.7,0.1-8-1.8-10-5.9
		C595.7,181,595.4,178.7,595.5,176.7z"/>
	<path class="st1" d="M562.4,189c-3.9,0-5.8-1.7-6-5.8c-0.2-4.3-0.1-8.6,0-12.9c0-2.1-0.3-3.6-2.9-3.4c-1.1,0.1-1.9-0.4-1.9-1.7
		c0-1.3,0.9-1.7,1.9-1.6c2.7,0.2,2.9-1.5,2.9-3.5c-0.1-1.4-0.1-2.7,1.9-2.7c2.1-0.1,2.5,1.1,2.4,2.8c-0.2,2.2,0.4,3.6,3,3.4
		c1.2-0.1,1.8,0.6,1.7,1.8c-0.1,1.4-1.1,1.6-2.1,1.5c-2.4-0.2-2.6,1.2-2.6,3.1c0.1,3.2,0,6.3,0,9.5c0,2.7-0.7,6,3.7,6.1
		c1,0,1.1,1.1,1,2C565.1,189.5,563.5,188.8,562.4,189z"/>
	<path class="st1" d="M548.1,170.7c0,5.1,0,10.3,0,15.4c0,1.8-0.4,2.8-2.5,2.8c-1.9-0.1-2.1-1.2-2.1-2.6c0-10.3,0-20.6,0-30.8
		c0-1.6,0.4-2.4,2.2-2.5c2.2-0.1,2.4,1.1,2.4,2.8C548.1,160.7,548.1,165.7,548.1,170.7z"/>
	<path class="st1" d="M647.4,176c0-3.3,0.1-6.6,0-9.9c-0.1-2,1-3.1,2.6-2.4c2.2,1,3.8,0.6,5.8-0.3c1.1-0.5,3.1-1.3,3.6,1
		c0.5,2-0.2,2.7-2.5,3c-4.4,0.6-5.2,1.9-5.3,6.3c-0.1,4.1,0,8.3,0,12.4c0,1.3,0.1,2.6-1.9,2.7c-2.3,0.1-2.3-1.3-2.3-2.9
		C647.4,182.6,647.4,179.3,647.4,176z"/>
</g>
</svg>
